<svg width="120" height="120" viewBox="0 0 120 120" xmlns="http://www.w3.org/2000/svg" role="img" aria-label="Zerowaste logo - food waste reduction bin">
  <defs>
    <linearGradient id="grad" x1="0" y1="0" x2="1" y2="1">
      <stop offset="0%" stop-color="#f97316"/>
      <stop offset="100%" stop-color="#ea580c"/>
    </linearGradient>
    <linearGradient id="leaf" x1="0" y1="0" x2="1" y2="1">
      <stop offset="0%" stop-color="#16a34a"/>
      <stop offset="100%" stop-color="#22c55e"/>
    </linearGradient>
  </defs>

  <!-- soft backdrop -->
  <circle cx="60" cy="60" r="56" fill="url(#grad)" opacity="0.12"/>

  <!-- dustbin body -->
  <g transform="translate(28,22)">
    <!-- lid -->
    <rect x="8" y="6" rx="3" ry="3" width="56" height="10" fill="url(#grad)"/>
    <rect x="22" y="2" rx="2" ry="2" width="28" height="6" fill="url(#grad)"/>

    <!-- bin -->
    <path d="M12 16h48l-3.8 48.5c-.4 5.1-4.7 9-9.8 9H25.6c-5.1 0-9.4-3.9-9.8-9L12 16z" fill="#ffffff" stroke="url(#grad)" stroke-width="3"/>

    <!-- stripes -->
    <rect x="24" y="24" width="4" height="40" rx="2" fill="#fde7d3"/>
    <rect x="36" y="24" width="4" height="40" rx="2" fill="#fde7d3"/>
    <rect x="48" y="24" width="4" height="40" rx="2" fill="#fde7d3"/>

    <!-- reduction arrow around bin -->
    <path d="M-6,28 C-4,14 8,4 22,4" fill="none" stroke="url(#grad)" stroke-width="3" stroke-linecap="round"/>
    <path d="M22 4 l-5 -4 M22 4 l-2 6" fill="none" stroke="url(#grad)" stroke-width="3" stroke-linecap="round"/>

    <!-- leaf (food-friendly) -->
    <path d="M8 44c8-8 20-8 26 0-8 8-20 8-26 0z" fill="url(#leaf)" opacity="0.9"/>
    <path d="M18 42c2 3 2 6 0 9" fill="none" stroke="#166534" stroke-width="1.5" stroke-linecap="round"/>
  </g>
</svg>

